<svg xmlns="http://www.w3.org/2000/svg" viewBox="0 0 380 60" width="100%" height="100%">
  <defs>
    <linearGradient id="ewBlue" x1="0%" y1="0%" x2="100%" y2="100%">
      <stop offset="0%" stop-color="#0066b8" />
      <stop offset="100%" stop-color="#004b8a" />
    </linearGradient>
  </defs>

  <!-- Blue Icon Background -->
  <rect x="2" y="2" width="56" height="56" rx="10" fill="url(#ewBlue)" />
  
  <!-- Signature White Window Wave Leaf -->
  <path d="M 16 18 C 22 14, 38 16, 44 20 C 46 28, 42 42, 40 46 C 32 44, 20 40, 16 32 Z" fill="#ffffff" />
  <path d="M 20 22 C 26 19, 36 20, 40 23 C 41 29, 38 37, 37 40 C 31 39, 23 35, 20 29 Z" fill="#005ba7" />
  <path d="M 24 25 C 28 23, 34 24, 36 26 C 37 30, 35 34, 34 36 C 30 35, 26 32, 24 28 Z" fill="#ffffff" />

  <!-- Eurowindow Brand Text -->
  <text x="72" y="36" fill="#005ba7" font-family="system-ui, -apple-system, BlinkMacSystemFont, 'Segoe UI', Roboto, 'Helvetica Neue', Arial, sans-serif" font-weight="900" font-size="33" letter-spacing="-0.8">Eurowindow</text>
  
  <!-- Corporate Tagline -->
  <text x="73" y="53" fill="#005ba7" font-family="system-ui, -apple-system, BlinkMacSystemFont, 'Segoe UI', Roboto, 'Helvetica Neue', Arial, sans-serif" font-weight="700" font-size="10" letter-spacing="0.5">TIÊN PHONG • KIẾN TẠO • ĐỒNG HÀNH</text>
</svg>